# xmcd
#
# Track frame offsets:
#	150
#	54462
#	77710
#	107182
#	149917
#	190662
#
# Disc length: 2846 seconds
#
# Revision: 1
# Processed by: cddbd v1.5.2PL0 Copyright (c) Steve Scherf et al.
# Submitted via: audiograbber 1.83.01
#
DISCID=530b1c06
DTITLE=Grateful Dead - 93-06-11 Buckeye Lake Music Centre, Hebron OH
DYEAR=1900
DGENRE=
TTITLE0=Space
TTITLE1=The Wheel
TTITLE2=All Along The Watchtower
TTITLE3=Black Peter
TTITLE4=Sugar Magnolia
TTITLE5=Brokedown Palace
EXTD=
EXTT0=
EXTT1=
EXTT2=
EXTT3=
EXTT4=
EXTT5=
PLAYORDER=
